<svg width="64" height="64" viewBox="0 0 64 64" fill="none" xmlns="http://www.w3.org/2000/svg">
  <defs>
    <linearGradient id="wax" x1="10" y1="6" x2="54" y2="58" gradientUnits="userSpaceOnUse">
      <stop stop-color="#FF4DA0"/>
      <stop offset="0.55" stop-color="#E6007E"/>
      <stop offset="1" stop-color="#B80064"/>
    </linearGradient>
  </defs>
  <!-- scalloped wax seal -->
  <path fill="url(#wax)" d="M32 3.5c2.7 0 5 1.9 6.5 4 2.3-1.2 5.2-1.3 7.4.1 2.2 1.4 3.2 4 3.3 6.6 2.6.2 5.1 1.5 6.4 3.8 1.3 2.3 1 5.2-.2 7.6 2.2 1.5 3.6 4 3.4 6.7-.2 2.6-1.9 4.8-4.2 6 .8 2.6.3 5.4-1.6 7.3-1.9 1.9-4.7 2.5-7.3 1.7-1 2.5-3.2 4.4-5.9 4.6-2.6.3-5.1-1.1-6.6-3.2-2.2 1.4-5.1 1.6-7.4.4-2.3-1.2-3.6-3.7-3.7-6.3-2.6-.4-4.9-2-5.9-4.4-1-2.4-.4-5.2 1.2-7.3-2-1.8-3.1-4.5-2.5-7.1.6-2.6 2.6-4.5 5.1-5.3-.5-2.6.3-5.4 2.4-7 2.1-1.7 4.9-1.9 7.3-1 1.3-2.3 3.7-3.9 6.4-3.9z"/>
  <!-- inner debossed ring -->
  <circle cx="32" cy="32" r="20" fill="none" stroke="#fff" stroke-opacity="0.45" stroke-width="1.5"/>
  <circle cx="32" cy="32" r="16.5" fill="none" stroke="#fff" stroke-opacity="0.22" stroke-width="1"/>
  <!-- monogram -->
  <path d="M24.5 23.5l5.2 7.6v9.4" stroke="#fff" stroke-width="3.4" stroke-linecap="round" stroke-linejoin="round"/>
  <path d="M29.7 31.1l5.4-7.6" stroke="#fff" stroke-width="3.4" stroke-linecap="round" stroke-linejoin="round"/>
  <path d="M37.5 24v16.5" stroke="#fff" stroke-width="3.4" stroke-linecap="round" stroke-linejoin="round"/>
</svg>
